<?xml version="1.0" standalone="no"?>
<!DOCTYPE svg PUBLIC "-//W3C//DTD SVG 20010904//EN"
 "http://www.w3.org/TR/2001/REC-SVG-20010904/DTD/svg10.dtd">
<svg version="1.0" xmlns="http://www.w3.org/2000/svg"
 width="300.000000pt" height="300.000000pt" viewBox="0 0 300.000000 300.000000"
 preserveAspectRatio="xMidYMid meet">
<metadata>
Created by potrace 1.14, written by Peter Selinger 2001-2017
</metadata>
<g transform="translate(0.000000,300.000000) scale(0.100000,-0.100000)"
fill="#000000" stroke="none">
<path d="M0 1500 l0 -1500 1500 0 1500 0 0 1500 0 1500 -1500 0 -1500 0 0
-1500z m652 629 c158 -33 261 -130 283 -267 l7 -43 -73 3 -73 3 -9 35 c-13 52
-50 95 -104 121 -40 20 -64 24 -148 24 -89 0 -106 -3 -155 -27 -65 -32 -90
-68 -90 -131 0 -53 27 -93 78 -114 20 -8 112 -35 206 -59 195 -50 254 -76 313
-135 59 -58 77 -110 71 -208 -4 -61 -10 -88 -31 -123 -48 -82 -140 -144 -245
-167 -116 -24 -293 -6 -382 39 -100 51 -174 154 -187 258 l-6 52 72 0 c67 0
71 -1 71 -22 1 -33 33 -99 61 -125 13 -12 51 -34 84 -50 53 -24 72 -27 160
-28 91 0 105 3 160 30 74 37 105 79 105 144 0 103 -51 137 -306 202 -171 44
-252 79 -301 130 -49 49 -67 95 -67 170 0 140 93 246 249 285 64 16 189 17
257 3z m1268 -74 l0 -65 -175 0 -175 0 0 -470 0 -470 -75 0 -75 0 0 470 0 470
-175 0 -175 0 0 65 0 65 425 0 425 0 0 -65z m400 -130 c74 -107 137 -194 140
-194 3 0 66 87 140 194 l135 194 88 1 c68 0 86 -3 80 -12 -6 -11 -331 -454
-354 -484 -5 -6 70 -117 196 -289 113 -153 205 -280 205 -282 0 -2 -39 -3 -87
-3 l-88 1 -153 219 c-85 121 -157 220 -161 220 -4 0 -77 -99 -162 -220 l-154
-219 -87 -1 c-49 0 -88 1 -88 3 0 1 92 128 204 282 l204 279 -37 50 c-220 299
-318 433 -324 444 -6 9 12 12 80 12 l88 0 135 -195z"/>
</g>
</svg>
